<svg width="97" height="110" viewBox="0 0 97 110" fill="none" xmlns="http://www.w3.org/2000/svg">
<path d="M0.267044 0.374268L9.04659 98.9384L48.4415 109.923L87.9464 98.8982L96.733 0.374268H0.267044ZM78.4937 22.9557L75.5712 55.7907L75.58 55.9679L75.5677 56.3757V56.3722L73.4914 79.3308L73.2626 81.3705L48.5 88.2195V88.2204L48.4808 88.237L23.761 81.3496L22.0871 62.3681H34.2091L35.0692 72.0199L48.5035 75.661L48.5 75.668V75.6662L61.9841 71.9737L63.4091 56.256H35.2211L34.9792 53.599L34.4283 47.3743L34.1393 44.0319H64.4804L65.5841 31.8078H19.3716L19.1298 29.1525L18.5797 22.9261L18.2898 19.5836H78.7827L78.4937 22.9557Z" fill="#C5C5C5"/>
</svg>
