<svg width="111" height="111" viewBox="0 0 111 111" fill="none" xmlns="http://www.w3.org/2000/svg">
<path d="M108.537 50.6736L60.4115 2.55071C57.6418 -0.220679 53.1469 -0.220679 50.3728 2.55071L40.3814 12.5448L53.0578 25.2212C56.0047 24.2267 59.382 24.8938 61.7299 27.2417C62.8489 28.3616 63.6301 29.7739 63.9841 31.3169C64.3382 32.8599 64.2508 34.4714 63.7321 35.9671L75.9492 48.186C78.9049 47.1671 82.3163 47.8254 84.6755 50.1899C87.976 53.4878 87.976 58.8341 84.6755 62.1338C83.8912 62.9185 82.9599 63.541 81.9349 63.9657C80.91 64.3904 79.8113 64.609 78.7019 64.609C77.5924 64.609 76.4937 64.3904 75.4688 63.9657C74.4438 63.541 73.5125 62.9185 72.7282 62.1338C71.5498 60.9546 70.7465 59.4533 70.4194 57.8186C70.0924 56.184 70.2562 54.4891 70.8902 52.9473L59.4973 41.5536L59.4955 71.5385C60.3221 71.9456 61.0768 72.4847 61.7299 73.1346C65.0296 76.4325 65.0296 81.7771 61.7299 85.082C58.4303 88.3799 53.0822 88.3799 49.7861 85.082C46.4873 81.778 46.2166 76.4334 49.5145 73.1346C50.3301 72.32 51.1342 71.7044 52.0074 71.2923V41.0297C51.1342 40.6175 50.3309 40.0063 49.5137 39.1865C47.0156 36.6892 46.5484 33.022 47.8302 29.952L35.4026 17.4546L2.43764 50.451C-0.334623 53.225 -0.31716 57.72 2.4551 60.4923L50.5885 108.615C53.359 111.387 57.8575 111.387 60.6324 108.615L108.534 60.7158C111.306 57.9426 111.308 53.445 108.537 50.6736Z" fill="#C5C5C5"/>
</svg>
