<svg width="75" height="75" viewBox="0 0 75 75" fill="none" xmlns="http://www.w3.org/2000/svg">
<path d="M20.6744 -0.158905C9.18354 -0.158905 -0.158905 9.18354 -0.158905 20.6744V54.0078C-0.158905 65.4986 9.18354 74.8411 20.6744 74.8411H54.0078C65.4986 74.8411 74.8411 65.4986 74.8411 54.0078V20.6744C74.8411 9.18354 65.4986 -0.158905 54.0078 -0.158905H20.6744ZM20.6744 8.17443H54.0078C60.8925 8.17443 66.5078 13.7897 66.5078 20.6744V54.0078C66.5078 60.8925 60.8925 66.5078 54.0078 66.5078H20.6744C13.7897 66.5078 8.17443 60.8925 8.17443 54.0078V20.6744C8.17443 13.7897 13.7897 8.17443 20.6744 8.17443ZM58.1744 12.3411C55.8795 12.3411 54.0078 14.2128 54.0078 16.5078C54.0078 18.8027 55.8795 20.6744 58.1744 20.6744C60.4693 20.6744 62.3411 18.8027 62.3411 16.5078C62.3411 14.2128 60.4693 12.3411 58.1744 12.3411ZM37.3411 16.5078C25.8502 16.5078 16.5078 25.8502 16.5078 37.3411C16.5078 48.832 25.8502 58.1744 37.3411 58.1744C48.832 58.1744 58.1744 48.832 58.1744 37.3411C58.1744 25.8502 48.832 16.5078 37.3411 16.5078ZM37.3411 24.8411C44.2259 24.8411 49.8411 30.4563 49.8411 37.3411C49.8411 44.2259 44.2259 49.8411 37.3411 49.8411C30.4563 49.8411 24.8411 44.2259 24.8411 37.3411C24.8411 30.4563 30.4563 24.8411 37.3411 24.8411Z" fill="white"/>
</svg>
