<svg width="110" height="110" viewBox="0 0 110 110" fill="none" xmlns="http://www.w3.org/2000/svg">
<path d="M0.764801 0.374268V109.518H109.909V0.374268H0.764801ZM58.4968 93.3764C56.8858 96.6498 53.8106 98.8004 50.2472 99.8386C44.7717 101.096 39.5345 100.379 35.6385 98.0408C33.0313 96.4412 30.9951 93.9789 29.6129 91.142L37.9253 86.0515C37.9978 86.0821 38.2161 86.4767 38.5077 86.9867C39.5677 88.7626 40.4819 90.02 42.2788 90.9027C44.0444 91.5052 47.9203 91.8903 49.4169 88.7836C50.3311 87.2032 50.0403 82.1232 50.0403 76.5027C50.0394 67.6708 50.0805 58.8755 50.0805 50.144H60.3042C60.3042 59.7487 60.3566 68.8452 60.3042 78.2176C60.326 83.9629 60.8246 89.0848 58.4968 93.3764ZM100.909 90.488C97.3556 102.644 77.542 103.039 69.6242 95.0074C67.9513 93.1171 66.9026 92.1295 65.9046 89.9475C70.1123 87.5271 70.1123 87.5271 74.2066 85.1583C76.4305 88.5767 78.4867 90.4566 82.1863 91.2258C87.2052 91.8388 92.2546 90.1143 91.1221 84.7837C89.9582 80.4301 80.8451 79.371 74.6431 74.7154C68.3468 70.4867 66.8712 60.2114 72.0455 54.3403C73.77 52.1688 76.7108 50.5482 79.7965 49.7694L83.0167 49.3529C89.1995 49.228 93.064 50.8608 95.9009 54.0286C96.6902 54.8284 97.3346 55.6911 98.5396 57.5605C95.246 59.6596 95.2565 59.6395 90.5389 62.6938C89.5313 60.5231 87.8592 59.161 86.0919 58.569C83.3485 57.7378 79.889 58.6415 79.1713 61.5404C78.9224 62.4336 78.974 63.2648 79.3695 64.7405C80.481 67.2752 84.2111 68.3771 87.5571 69.9148C97.1888 73.8213 100.441 78.0098 101.241 82.9955C102.011 87.2879 101.055 90.0724 100.909 90.488Z" fill="#C5C5C5"/>
</svg>
