<svg width="95" height="107" viewBox="0 0 95 107" fill="none" xmlns="http://www.w3.org/2000/svg">
<path d="M90.6031 24.1869L52.0595 1.82979C49.6313 0.446712 46.4504 0.446712 44.0029 1.82979L5.15812 24.1869C2.65304 25.6284 0.949524 28.3378 0.949524 31.2358V75.8906C0.949524 78.7886 2.68884 81.4989 5.19479 82.9483L15.436 88.7879C20.3492 91.2083 21.7105 91.2083 23.9457 91.2083C31.2226 91.2083 35.0016 86.8085 35.0016 79.1344V35.0489C35.0025 34.4263 35.391 33.4999 34.779 33.4999H29.8701C29.2484 33.4999 28.0173 34.4263 28.0173 35.048V79.1335C28.0173 82.5353 24.8599 85.9205 19.1094 83.0452L8.525 76.9218C8.15653 76.721 7.93475 76.3167 7.93475 75.8906V31.2358C7.93475 30.815 8.33902 30.3924 8.71273 30.1767L47.4615 7.85803C47.6517 7.75697 47.8638 7.70412 48.0793 7.70412C48.2947 7.70412 48.5068 7.75697 48.697 7.85803L87.0834 30.1714C87.451 30.3924 87.3925 30.8019 87.3925 31.2358V75.8906C87.3925 76.3167 87.4728 76.7314 87.1105 76.9366L48.5756 99.2684C48.2456 99.4666 47.816 99.4666 47.4536 99.2684L37.5722 93.3755C37.2744 93.2026 36.9156 93.1406 36.6292 93.3004C33.8831 94.8572 33.3732 95.0642 30.7974 95.9574C30.1626 96.1783 29.2266 96.5616 31.1536 97.6417L44.0745 105.285C45.3081 105.998 46.7075 106.373 48.1321 106.373C49.5622 106.376 50.9676 106 52.2062 105.285L90.604 82.9483C93.1108 81.4884 94.3777 78.7886 94.3777 75.8906V31.2358C94.3769 28.3378 93.1099 25.6354 90.6031 24.1869ZM60.0855 68.8146C49.8461 68.8146 47.5916 65.9899 46.8398 60.8986C46.7508 60.3502 46.2862 59.6945 45.7274 59.6945H40.7243C40.1052 59.6945 39.6066 60.4454 39.6066 61.0618C39.6066 67.5808 43.1516 75.4793 60.0855 75.4793C72.3429 75.4793 79.3717 70.7163 79.3717 62.2869C79.3717 53.9291 73.7251 51.7357 61.8371 50.1623C49.8208 48.574 48.6001 47.7716 48.6001 44.9565C48.6001 42.6357 49.6339 39.5404 58.5313 39.5404C66.4805 39.5404 69.4108 41.2465 70.6166 46.6051C70.7205 47.1089 71.1807 47.4704 71.7002 47.4704H76.7243C77.0334 47.4704 77.3277 47.3455 77.5442 47.1246C77.7547 46.8871 77.8647 46.5893 77.8376 46.2698C77.0579 37.0414 70.9284 32.7411 58.5305 32.7411C47.5008 32.7411 40.9225 37.3985 40.9225 45.2054C40.9225 53.6732 47.4685 56.0133 58.0555 57.0602C70.7205 58.3018 71.7055 60.1529 71.7055 62.644C71.7055 66.9713 68.232 68.8146 60.0855 68.8146Z" fill="#C5C5C5"/>
</svg>
